<?xml version="1.0" standalone="no"?>
<!DOCTYPE svg PUBLIC "-//W3C//DTD SVG 20010904//EN"
 "http://www.w3.org/TR/2001/REC-SVG-20010904/DTD/svg10.dtd">
<svg version="1.0" xmlns="http://www.w3.org/2000/svg"
 width="512.000000pt" height="512.000000pt" viewBox="0 0 512.000000 512.000000"
 preserveAspectRatio="xMidYMid meet">
<metadata>
Created by potrace 1.16, written by Peter Selinger 2001-2019
</metadata>
<g transform="translate(0.000000,512.000000) scale(0.100000,-0.100000)"
fill="#000000" stroke="none">
<path d="M1698 5017 c-14 -12 -31 -32 -37 -44 -14 -27 -15 -581 -2 -616 9 -24
8 -25 -62 -36 -40 -7 -103 -23 -142 -36 -38 -14 -73 -25 -76 -25 -4 0 -10 12
-13 26 -12 47 -266 478 -301 512 -83 78 -216 9 -198 -103 7 -44 252 -476 296
-522 17 -18 26 -33 21 -33 -16 0 -132 -108 -175 -162 -36 -46 -38 -47 -52 -28
-14 20 -390 243 -484 287 -97 45 -183 -2 -183 -101 0 -53 18 -83 69 -115 106
-66 451 -261 463 -261 38 -1 41 -16 14 -92 -14 -40 -30 -106 -37 -146 -11 -64
-14 -70 -30 -62 -10 6 -141 10 -306 10 -254 0 -292 -2 -323 -18 -41 -20 -60
-53 -60 -105 0 -50 25 -93 64 -109 34 -14 569 -19 617 -6 25 7 25 6 43 -80 10
-48 29 -115 42 -149 l23 -63 -26 0 c-28 0 -498 -267 -528 -300 -10 -11 -20
-41 -23 -69 -3 -39 0 -56 17 -79 26 -37 71 -56 119 -49 35 5 479 253 522 292
10 9 22 30 25 46 7 33 16 40 201 148 l122 70 -43 85 c-52 105 -70 189 -62 305
12 186 107 346 270 452 80 52 166 80 269 86 112 7 192 -8 293 -57 96 -46 159
-99 221 -187 26 -35 50 -63 53 -61 4 2 68 43 143 91 l136 88 37 -26 c64 -43
80 -37 331 106 277 159 290 168 305 219 25 83 -44 168 -126 155 -46 -8 -497
-262 -532 -300 l-21 -24 -25 32 c-35 45 -73 84 -136 140 -52 46 -53 48 -34 62
11 7 82 122 157 254 153 265 164 299 127 359 -38 59 -125 71 -178 25 -17 -16
-90 -129 -161 -253 -123 -215 -156 -282 -145 -293 2 -3 -32 8 -78 23 -45 16
-113 34 -151 41 -57 10 -68 15 -61 28 10 20 17 521 8 580 -5 32 -16 54 -40 78
-28 28 -40 33 -81 33 -36 0 -56 -6 -76 -23z"/>
<path d="M3260 3743 c-202 -15 -410 -88 -581 -203 -88 -60 -255 -230 -314
-320 -27 -41 -49 -75 -49 -76 -1 -1 -35 2 -76 6 -94 10 -241 -4 -338 -30 -323
-89 -590 -351 -682 -668 l-23 -80 -71 -6 c-212 -21 -392 -107 -529 -255 -362
-392 -232 -1032 255 -1255 166 -76 24 -70 1738 -74 1067 -2 1568 0 1643 8 232
23 434 118 598 280 121 120 206 261 255 427 32 108 44 318 24 441 -47 293
-236 555 -507 704 -66 36 -73 43 -78 76 -16 93 -57 240 -89 313 -152 353 -474
615 -845 688 -98 20 -251 31 -331 24z m305 -433 c269 -86 471 -295 540 -560
18 -67 24 -186 15 -300 l-5 -64 109 -33 c60 -18 132 -44 160 -57 111 -51 220
-157 278 -269 29 -58 58 -182 58 -251 -1 -264 -190 -507 -446 -571 -53 -13
-251 -15 -1625 -13 l-1564 3 -63 29 c-157 73 -253 253 -222 416 33 176 178
307 350 318 67 4 94 -1 263 -48 104 -28 191 -49 194 -46 3 3 -2 81 -11 173
-17 155 -17 174 -2 243 60 286 326 490 610 467 41 -3 128 -23 204 -47 73 -23
135 -40 136 -38 2 1 27 58 56 126 29 67 68 148 87 179 105 174 278 302 479
353 108 27 296 23 399 -10z"/>
</g>
</svg>
